<svg width="49" height="49" viewBox="0 0 49 49" fill="none" xmlns="http://www.w3.org/2000/svg">
<rect width="49" height="49" fill="#E5E5E5"/>
<rect width="1440" height="5053" transform="translate(-128 -1134)" fill="white"/>
<g clip-path="url(#clip0_0_1)">
<rect width="1440" height="348" transform="translate(-128 -110)" fill="#171836"/>
<circle cx="24.7081" cy="24.7081" r="23.5" transform="rotate(119.509 24.7081 24.7081)" stroke="url(#paint0_linear_0_1)"/>
<path d="M28.6 19.2C28.6 20.1548 28.2207 21.0704 27.5456 21.7456C26.8704 22.4207 25.9547 22.8 25 22.8C24.0452 22.8 23.1295 22.4207 22.4544 21.7456C21.7793 21.0704 21.4 20.1548 21.4 19.2C21.4 18.2452 21.7793 17.3295 22.4544 16.6544C23.1295 15.9793 24.0452 15.6 25 15.6C25.9547 15.6 26.8704 15.9793 27.5456 16.6544C28.2207 17.3295 28.6 18.2452 28.6 19.2V19.2Z" fill="url(#paint1_linear_0_1)"/>
<path d="M34.6001 21.6C34.6001 22.2365 34.3472 22.8469 33.8971 23.297C33.447 23.7471 32.8366 24 32.2001 24C31.5636 24 30.9531 23.7471 30.503 23.297C30.0529 22.8469 29.8001 22.2365 29.8001 21.6C29.8001 20.9634 30.0529 20.353 30.503 19.9029C30.9531 19.4528 31.5636 19.2 32.2001 19.2C32.8366 19.2 33.447 19.4528 33.8971 19.9029C34.3472 20.353 34.6001 20.9634 34.6001 21.6V21.6Z" fill="url(#paint2_linear_0_1)"/>
<path d="M29.8 29.9999C29.8 28.7269 29.2943 27.506 28.3941 26.6058C27.4939 25.7057 26.273 25.2 25 25.2C23.7269 25.2 22.506 25.7057 21.6059 26.6058C20.7057 27.506 20.2 28.7269 20.2 29.9999V33.5999H29.8V29.9999Z" fill="url(#paint3_linear_0_1)"/>
<path d="M20.2 21.6C20.2 22.2365 19.9471 22.8469 19.497 23.297C19.0469 23.7471 18.4365 24 17.8 24C17.1634 24 16.553 23.7471 16.1029 23.297C15.6528 22.8469 15.4 22.2365 15.4 21.6C15.4 20.9634 15.6528 20.353 16.1029 19.9029C16.553 19.4528 17.1634 19.2 17.8 19.2C18.4365 19.2 19.0469 19.4528 19.497 19.9029C19.9471 20.353 20.2 20.9634 20.2 21.6V21.6Z" fill="url(#paint4_linear_0_1)"/>
<path d="M32.2001 33.5999V29.9999C32.2018 28.7799 31.892 27.5796 31.3001 26.5127C31.8321 26.3766 32.3882 26.3637 32.9259 26.4752C33.4637 26.5866 33.9688 26.8194 34.4029 27.1558C34.837 27.4922 35.1885 27.9233 35.4306 28.4162C35.6728 28.9091 35.7991 29.4508 35.8001 29.9999V33.5999H32.2001Z" fill="url(#paint5_linear_0_1)"/>
<path d="M18.7 26.5128C18.1081 27.5796 17.7983 28.7799 17.8 30V33.6H14.2V30C14.1998 29.4504 14.3253 28.9081 14.5671 28.4146C14.8089 27.9211 15.1605 27.4895 15.5948 27.1529C16.0292 26.8162 16.5349 26.5835 17.0732 26.4726C17.6114 26.3616 18.1679 26.3754 18.7 26.5128V26.5128Z" fill="url(#paint6_linear_0_1)"/>
<circle cx="12" cy="39" r="1" fill="#F0868A"/>
<circle cx="8.5" cy="8.5" r="0.5" fill="#F0868A"/>
<circle cx="10.5" cy="2.5" r="0.5" fill="#F0868A"/>
<circle cx="4.5" cy="40.5" r="0.5" fill="#F0868A"/>
</g>
<defs>
<linearGradient id="paint0_linear_0_1" x1="24.7081" y1="0.708113" x2="24.7081" y2="48.7081" gradientUnits="userSpaceOnUse">
<stop stop-color="#FF7D7D"/>
<stop offset="1" stop-color="#2C2E59"/>
</linearGradient>
<linearGradient id="paint1_linear_0_1" x1="25" y1="15.6" x2="25" y2="22.8" gradientUnits="userSpaceOnUse">
<stop stop-color="#EF777B"/>
<stop offset="1" stop-color="#F08F92"/>
</linearGradient>
<linearGradient id="paint2_linear_0_1" x1="32.2001" y1="19.2" x2="32.2001" y2="24" gradientUnits="userSpaceOnUse">
<stop stop-color="#EF777B"/>
<stop offset="1" stop-color="#F08F92"/>
</linearGradient>
<linearGradient id="paint3_linear_0_1" x1="25" y1="25.2" x2="25" y2="33.5999" gradientUnits="userSpaceOnUse">
<stop stop-color="#EF777B"/>
<stop offset="1" stop-color="#F08F92"/>
</linearGradient>
<linearGradient id="paint4_linear_0_1" x1="17.8" y1="19.2" x2="17.8" y2="24" gradientUnits="userSpaceOnUse">
<stop stop-color="#EF777B"/>
<stop offset="1" stop-color="#F08F92"/>
</linearGradient>
<linearGradient id="paint5_linear_0_1" x1="33.5501" y1="26.4001" x2="33.5501" y2="33.5999" gradientUnits="userSpaceOnUse">
<stop stop-color="#EF777B"/>
<stop offset="1" stop-color="#F08F92"/>
</linearGradient>
<linearGradient id="paint6_linear_0_1" x1="16.45" y1="26.3984" x2="16.45" y2="33.6" gradientUnits="userSpaceOnUse">
<stop stop-color="#EF777B"/>
<stop offset="1" stop-color="#F08F92"/>
</linearGradient>
<clipPath id="clip0_0_1">
<rect width="1440" height="348" fill="white" transform="translate(-128 -110)"/>
</clipPath>
</defs>
</svg>
