<svg width="49" height="49" viewBox="0 0 49 49" fill="none" xmlns="http://www.w3.org/2000/svg">
<rect width="49" height="49" fill="#E5E5E5"/>
<rect width="1440" height="5053" transform="translate(-536 -1134)" fill="white"/>
<g clip-path="url(#clip0_0_1)">
<rect width="1440" height="348" transform="translate(-536 -110)" fill="#171836"/>
<circle cx="24.7081" cy="24.7081" r="23.5" transform="rotate(119.509 24.7081 24.7081)" stroke="url(#paint0_linear_0_1)"/>
<path d="M27.1425 22.2427C27.2859 22.2427 27.4242 22.2657 27.5574 22.3041L30.0419 19.2587C30.2007 19.064 30.4953 19.0281 30.6874 19.1921C30.8744 19.3483 30.9 19.6275 30.7437 19.817L28.2874 22.8292C28.4539 23.0597 28.5538 23.3441 28.5538 23.6514C28.5538 24.2226 28.2105 24.717 27.7213 24.9372H37.3597C37.7132 24.9372 38.0001 24.6504 38.0001 24.2969V16.1901C38.0001 15.8367 37.7132 15.5498 37.3597 15.5498H25.1164C24.7629 15.5498 24.4761 15.8367 24.4761 16.1901V21.5127L25.0549 22.2452H27.1425V22.2427Z" fill="url(#paint1_linear_0_1)"/>
<path d="M19.156 18.7438C20.6046 18.7438 21.7788 17.5696 21.7788 16.121C21.7788 14.6725 20.6046 13.4982 19.156 13.4982C17.7075 13.4982 16.5332 14.6725 16.5332 16.121C16.5332 17.5696 17.7075 18.7438 19.156 18.7438Z" fill="url(#paint2_linear_0_1)"/>
<path d="M21.8455 35.8615C21.8455 36.215 21.5586 36.5018 21.2051 36.5018H20.1293C19.7759 36.5018 19.489 36.215 19.489 35.8615V30.4928C19.489 30.3033 19.3353 30.1496 19.1458 30.1496C18.9562 30.1496 18.8026 30.3033 18.8026 30.4928V35.8358C18.8026 36.2021 18.5029 36.5018 18.1366 36.5018H17.0839C16.7304 36.5018 16.4435 36.215 16.4435 35.8615L16.4384 22.901C16.4384 22.7268 16.2975 22.5834 16.1208 22.5834C15.9466 22.5834 15.8032 22.7242 15.8032 22.901V27.8854C15.8032 28.2388 15.5163 28.5257 15.1629 28.5257H14.6403C14.2869 28.5257 14 28.2388 14 27.8854V21.0516C14 20.2397 14.6583 19.584 15.4677 19.584H21.2999C21.9248 19.584 22.5165 19.8709 22.9059 20.3601L24.4734 22.3375L24.8038 22.755C24.8038 22.755 26.2894 22.755 27.1449 22.7575C27.4984 22.7575 27.7852 23.0444 27.7852 23.3979V23.9076C27.7852 24.261 27.4984 24.5479 27.1449 24.5479H24.3735C24.0995 24.5479 23.8408 24.4224 23.6717 24.2072L22.5037 22.7063C22.4448 22.6294 22.3501 22.5833 22.2527 22.5833H22.1733C21.9991 22.5833 21.8557 22.7242 21.8557 22.9009L21.8455 35.8615Z" fill="url(#paint3_linear_0_1)"/>
<circle cx="6" cy="31" r="1" fill="#6ABC9C"/>
<circle cx="41" cy="4" r="1" fill="#6ABC9C"/>
<circle cx="3.5" cy="37.5" r="0.5" fill="#6ABC9C"/>
<circle cx="45.5" cy="8.5" r="0.5" fill="#6ABC9C"/>
<circle cx="42.5" cy="15.5" r="0.5" fill="#6ABC9C"/>
</g>
<defs>
<linearGradient id="paint0_linear_0_1" x1="24.7081" y1="0.708113" x2="24.7081" y2="48.7081" gradientUnits="userSpaceOnUse">
<stop stop-color="#4DB88D"/>
<stop offset="1" stop-color="#2C2E59"/>
</linearGradient>
<linearGradient id="paint1_linear_0_1" x1="31.2381" y1="15.5498" x2="31.2381" y2="24.9372" gradientUnits="userSpaceOnUse">
<stop stop-color="#4DB68D"/>
<stop offset="1" stop-color="#8CC3AE"/>
</linearGradient>
<linearGradient id="paint2_linear_0_1" x1="19.156" y1="13.4982" x2="19.156" y2="18.7438" gradientUnits="userSpaceOnUse">
<stop stop-color="#4DB68D"/>
<stop offset="1" stop-color="#8CC3AE"/>
</linearGradient>
<linearGradient id="paint3_linear_0_1" x1="20.8926" y1="19.584" x2="20.8926" y2="36.5018" gradientUnits="userSpaceOnUse">
<stop stop-color="#4DB68D"/>
<stop offset="1" stop-color="#8CC3AE"/>
</linearGradient>
<clipPath id="clip0_0_1">
<rect width="1440" height="348" fill="white" transform="translate(-536 -110)"/>
</clipPath>
</defs>
</svg>
